<svg id="Layer_1" data-name="Layer 1" xmlns="http://www.w3.org/2000/svg" viewBox="0 0 1296 432">
<title>educart</title>
<path d="M88.68,331.55H221.58V307.44H116.32V241h64.09c5.29,0,9.41-.59,11.76-2.94,2.35-1.76,2.94-5.88,2.94-10.58h0v-7.06h-78.8v-57H221.58V141.61H102.8c-5.29,0-8.82,1.18-11.17,3.53-1.76,2.35-2.94,5.88-2.94,11.76Z" fill="#fff" fill-rule="evenodd"/>
<path d="M376.23,134H402.1v137.6c0,15.29-5.88,31.17-18.23,47.63-12.35,15.88-30.58,24.11-54.69,23.52-22.93-.59-40.57-8.23-51.75-23.52-11.76-14.7-18.23-30.58-19.41-47-1.18-15.88,1.76-29.4,8.23-40.57,7.06-11.76,15.29-20.58,25.87-26.46,10-5.29,20.58-8.82,30.58-8.82,18.23-.59,32.93,2.35,43.51,9.41v27.64a74.5,74.5,0,0,0-19.41-9.41,48.35,48.35,0,0,0-21.76-3.53c-12.94,1.18-22.93,7.06-31.17,16.47s-11.17,21.76-10,37.63C285.09,289.8,291,301,301,308c10,6.47,20,10,30,10,14.7,0,25.87-5.88,33.52-16.46,8.23-10,11.76-24.11,11.76-40.57Z" fill="#fff" />
<path d="M443.85,184.54h25.87v84.67q.88,15,10.58,24.7c6.47,5.88,14.11,9.41,22.93,9.41,10,0,18.23-3.53,24.11-10.58a34.7,34.7,0,0,0,10.58-23.52V184.54h25.87V268c0,17.05-5.88,31.75-17.05,43.51C535,323.31,520.3,328.61,503.24,328s-31.17-5.88-42.34-16.46c-11.76-10.58-17.05-26.46-17.05-47Z" fill="#fff" />
<path d="M961.32,325.08V243.93c-.59-7.65-2.35-14.11-5.88-19.41-4.12-5.88-9.41-10-16.47-13.52a58.65,58.65,0,0,0-24.11-4.71q-8.82-.88-19.41,3.53a44.19,44.19,0,0,0-18.82,15.88c-4.7,7.06-7.64,16.47-7.64,27.64,0,15.29,4.7,27.64,13.52,36.46,9.41,8.82,20,13.52,32.34,13.52,13.52,0,25.87-6.47,36.46-19.4v31.17c-8.23,4.7-14.7,8.23-18.82,10-4.71,1.76-11.17,2.94-20,2.94-17.64.59-34.1-6.47-48.22-20q-21.17-21.17-21.17-54.69,0-30,19.41-51.16c12.94-13.52,31.17-20.58,54.69-20.58,14.11,0,27,2.94,38.22,8.82a61.9,61.9,0,0,1,24.11,23.52,67.77,67.77,0,0,1,8.23,32.34v78.79Z" fill="#fff"/>
<path d="M1030.7,184.54h24.7V201a37.75,37.75,0,0,1,14.7-14.11,44.14,44.14,0,0,1,21.76-5.29h8.23v24.7h-6.47q-19.41,0-28.23,14.11a70.57,70.57,0,0,0-8.82,30.58v74.09H1030.7Z" fill="#fff" /><path d="M1132.43,281V148.67h25.87v35.87h50.57v24.7H1158.3v77a12.42,12.42,0,0,0,4.7,10c2.94,2.94,7.64,4.12,13.52,4.12h32.34v24.7h-32.93c-14.7,0-25.87-4.12-32.93-12.35-7.06-8.82-10.58-18.82-10.58-31.75Z" fill="#fff" /><path d="M876.05,53.41c-10,15.88-40.57,61.15-41.16,61.15l-1.76,2.94-207,2.35s-15.88,0-16.46,15.88c0,20.58-1.76,114.08-1.76,117.61V261a44.53,44.53,0,0,1,.59,8.82v.59c0,2.94.59,6.47.59,9.41a51.71,51.71,0,0,1,1.18,10c.59,2.94,1.76,6.47,2.35,10a71.61,71.61,0,0,0,4.12,10,64.18,64.18,0,0,0,4.7,8.82c1.76,2.35,3.53,5.29,5.88,7.64a42.1,42.1,0,0,0,8.82,6.47,45.14,45.14,0,0,0,10.58,5.88,13.84,13.84,0,0,1,4.71,1.18l2.35.59c4.12.59,8.23,1.76,12.94,1.76a204,204,0,0,0,22.35,1.18h60.57c8.23.59,14.11,0,19.41,0h19.41c16.47-.59,7.64-27,3.53-37.63H692a41.65,41.65,0,0,1-8.82-.59c-4.12,0-7.64-.59-10-1.76a41.17,41.17,0,0,1-10-5.29c-2.35-2.35-5.29-4.7-7.64-7.64a67,67,0,0,1-5.88-11.17,92.73,92.73,0,0,1-2.94-14.7c-1.18-5.88-1.18-11.76-1.18-18.82V150.43H843.12a4.56,4.56,0,0,0,1.76-.59c2.35-.59,4.12-2.35,5.29-2.94,2.35-2.35,31.75-47,44.69-67l5.88-9.41c0-.59-3.53-1.76-7.06-5.29a36.67,36.67,0,0,0-7.06-5.29c-2.35-.59-4.12-2.35-6.47-2.94-2.94-1.76-4.12-4.12-4.12-3.53Z" fill="#e61f2a" fill-rule="evenodd"/><path d="M765.5,379.18c-8.82,0-15.29-6.47-15.29-14.7a15.07,15.07,0,0,1,15.29-14.7c7.64,0,14.11,7.06,14.11,14.7,0,8.23-6.47,14.7-14.11,14.7Zm0-27.64h0a12.95,12.95,0,1,0,0,25.87c6.47,0,12.94-5.88,12.94-12.94S772,351.54,765.5,351.54Z" fill="#e61f2a" fill-rule="evenodd"/><path d="M776.09,364.48a10.53,10.53,0,0,0-10.58-10.58c-6.47,0-11.76,4.12-11.76,10.58s5.29,11.17,11.76,11.17c5.29,0,10.58-4.7,10.58-11.17Z" fill="#e61f2a" fill-rule="evenodd"/><path d="M666.13,378c-7.64,0-14.7-7.06-14.7-15.29,0-7.64,7.06-14.7,14.7-14.7a15,15,0,1,1,0,30Zm0-28.23h0c-7.06,0-12.94,6.47-12.94,12.94a13,13,0,0,0,12.94,12.94c7.65,0,12.94-5.29,12.94-12.94a13,13,0,0,0-12.94-12.94Z" fill="#e61f2a" fill-rule="evenodd"/><path d="M677.3,362.71c0-5.29-4.7-10.58-11.17-10.58-5.29,0-10.58,5.29-10.58,10.58,0,6.47,5.29,11.17,10.58,11.17a10.81,10.81,0,0,0,11.17-11.17Z" fill="#e61f2a" fill-rule="evenodd"/></svg>